<svg width="200" height="100" viewBox="0 0 200 100" fill="none" xmlns="http://www.w3.org/2000/svg">
<rect width="200" height="100" fill="white"/>
<path d="M46.0952 38.8317C46.1395 38.2758 46.2728 37.7255 46.4864 37.2105C47.3316 38.2817 48.3585 39.2069 49.5059 39.9441C51.2038 41.0417 53.1588 41.7038 55.1511 42.0059C56.5384 42.2174 57.9507 42.2608 59.3493 42.1482C59.6525 42.1221 59.9556 42.0894 60.256 42.04C59.23 42.5775 58.1406 42.9936 57.017 43.2749C54.9567 43.7888 52.7889 43.8541 50.6986 43.4864C50.1886 43.3945 49.6815 43.2819 49.1889 43.1199C48.6027 42.9185 48.0323 42.6528 47.5394 42.2729C47.0479 41.9008 46.6388 41.4113 46.3921 40.8439C46.1126 40.2162 46.0302 39.5124 46.0952 38.8317Z" fill="#D8DFE2"/>
<path d="M41.6683 44.1096C41.6014 43.5341 41.579 42.9482 41.668 42.3735C42.5558 42.9591 43.4693 43.5125 44.4433 43.9434C45.6685 44.4949 46.9676 44.8757 48.2914 45.1012C50.6096 45.4963 52.9842 45.4459 55.3114 45.1536C57.7954 44.8418 60.2363 44.2475 62.6273 43.5139C61.7978 44.1362 60.9235 44.6966 60.0343 45.229C57.9875 46.44 55.818 47.4588 53.5398 48.1509C51.8657 48.6542 50.1257 48.9688 48.3746 48.9699C47.1211 48.9624 45.8589 48.7993 44.669 48.3958C44.049 48.1719 43.4802 47.8038 43.033 47.3184C42.5087 46.7533 42.1416 46.0531 41.9254 45.3159C41.7991 44.9236 41.7235 44.5173 41.6683 44.1096Z" fill="#D8DFE2"/>
<path d="M58.2412 47.9492C59.0688 47.444 59.8776 46.9054 60.6452 46.312C59.4651 48.0792 58.0934 49.7332 56.4638 51.1039C55.6228 51.8033 54.7143 52.4282 53.7314 52.9107C53.1212 53.2082 52.4832 53.457 51.8181 53.5988C51.1835 53.7224 50.5285 53.7605 49.8866 53.6728C49.3733 53.6145 48.867 53.4705 48.4105 53.2267C47.9798 52.9978 47.6017 52.6697 47.3191 52.2718C46.9372 51.7375 46.7375 51.0941 46.6484 50.4488C47.5331 50.7632 48.4735 50.9086 49.4111 50.9044C50.3414 50.9086 51.2686 50.7775 52.1726 50.5634C53.2542 50.3093 54.3032 49.9305 55.319 49.483C56.3252 49.0361 57.2997 48.5194 58.2412 47.9492Z" fill="#D8DFE2"/>
<path d="M67.5788 39.9061C68.6494 39.7983 69.7312 39.782 70.8021 39.8919C71.4328 39.9675 72.0671 40.0855 72.6496 40.3477C72.9246 40.4747 73.1901 40.6369 73.3945 40.8639C73.5942 41.0721 73.7202 41.3489 73.7454 41.6367C73.7756 41.9199 73.7104 42.2018 73.6227 42.4697C73.2542 42.1242 72.7714 41.93 72.2886 41.8067C71.9102 41.7146 71.5224 41.668 71.134 41.6529C70.6738 42.2153 69.9401 42.5633 69.2092 42.4879C68.821 42.4504 68.4533 42.2674 68.1778 41.9934C68.0991 41.918 68.0246 41.8381 67.9498 41.7588C68.5855 42.0093 69.3414 41.9516 69.9121 41.5677C68.9182 41.424 67.9126 41.3814 66.9092 41.3693C65.4406 41.3643 63.9718 41.4534 62.5144 41.6347C62.042 41.6891 61.5723 41.7653 61.1016 41.8317C62.0532 41.308 63.0767 40.9266 64.1132 40.608C65.2451 40.2768 66.402 40.0121 67.5788 39.9061Z" fill="#D8DFE2"/>
<path d="M67.9314 44.3091C69.9105 43.5209 72.0548 43.0627 74.1913 43.2272C74.9354 43.29 75.6803 43.4273 76.3726 43.7142C76.724 43.8652 77.0707 44.0726 77.2855 44.3984C77.458 44.6562 77.5129 44.979 77.4765 45.2839C77.4138 45.758 77.1931 46.1998 76.9044 46.5764C76.8568 46.3058 76.7425 46.0351 76.5339 45.8496C76.281 45.6117 75.9284 45.5187 75.5912 45.4873C75.0264 45.4397 74.4599 45.5324 73.9112 45.661C73.2506 45.8146 72.611 46.0435 71.9767 46.2817C70.8895 46.7081 69.8296 47.2052 68.8026 47.7611C67.2484 48.7578 65.7244 49.8021 64.2379 50.8977C63.1636 51.6912 62.1123 52.5172 61.1011 53.3901C60.4166 53.9821 59.7532 54.5991 59.127 55.2528C58.6649 55.7426 58.2113 56.2484 57.8508 56.8197C58.1527 55.8141 58.5011 54.8196 58.9486 53.8689C59.2337 53.2911 59.537 52.705 59.9963 52.2443C59.2838 52.7588 58.6308 53.3486 57.9914 53.9496C57.7271 54.2183 57.4515 54.4758 57.1927 54.7501C55.9913 55.9954 54.8837 57.3291 53.8439 58.7119C53.5138 59.1479 53.1948 59.5923 52.8828 60.0417C53.1883 59.1745 53.5104 58.3118 53.8946 57.4759C54.7642 55.5812 55.9717 53.8571 57.3535 52.3023C57.8422 51.7472 58.3546 51.2132 58.8837 50.6962C59.5605 50.0265 60.2643 49.3849 60.9885 48.7668C61.8225 48.0556 62.6718 47.3604 63.5652 46.7247C64.9243 45.7602 66.3836 44.9305 67.9314 44.3091Z" fill="#D8DFE2"/>
<path d="M142.074 46.711C142.638 46.3437 143.314 46.1904 143.979 46.1573C144.613 46.1237 145.253 46.1918 145.866 46.3605C146.145 46.4431 146.42 46.5499 146.663 46.713C146.853 46.8508 147.014 47.0551 147.032 47.2969C147.041 47.4474 147.019 47.6074 146.941 47.7385C146.729 48.04 146.513 48.3392 146.301 48.6407C145.896 48.2975 145.378 48.0952 144.848 48.0697C144.495 48.0462 144.126 48.0775 143.81 48.2471C143.652 48.3339 143.502 48.4452 143.403 48.5982C143.206 48.8887 143.154 49.2499 143.149 49.594C143.148 49.8963 143.149 50.1987 143.149 50.501C144.178 50.5007 145.208 50.501 146.236 50.501C146.236 51.1208 146.236 51.7406 146.237 52.3604C145.208 52.3604 144.179 52.361 143.15 52.3601C143.147 54.6079 143.15 56.8554 143.149 59.1028C142.33 59.1031 141.511 59.1031 140.692 59.1028C140.691 55.9893 140.691 52.8757 140.691 49.7621C140.695 49.0652 140.791 48.3465 141.132 47.7284C141.35 47.3143 141.681 46.9635 142.074 46.711Z" fill="#D8DFE2"/>
<path d="M89.286 46.3526C89.6456 46.2916 90.0139 46.2792 90.3782 46.3022C90.5997 46.326 90.8271 46.3498 91.0307 46.4479C91.3287 46.5824 91.5525 46.8536 91.6575 47.1605C91.7297 47.3754 91.7376 47.6043 91.7376 47.8293C91.7373 48.9184 91.7384 50.0078 91.7362 51.0973C91.9664 50.8767 92.2428 50.7114 92.5262 50.5688C93.0473 50.3177 93.6413 50.2827 94.2104 50.313C94.843 50.3662 95.4924 50.5231 96.0072 50.9121C96.4031 51.1987 96.7154 51.5915 96.935 52.027C97.1646 52.4649 97.3116 52.9443 97.3822 53.4339C97.488 54.1458 97.4808 54.8707 97.4192 55.5866C97.3685 56.0831 97.2749 56.5791 97.0965 57.0468C96.9352 57.4783 96.7199 57.8944 96.4236 58.2494C96.059 58.6708 95.5874 59.0076 95.0505 59.1679C94.4005 59.3699 93.6959 59.4186 93.03 59.2685C92.4637 59.1186 91.8902 58.863 91.5205 58.39C91.5188 58.5904 91.4645 58.7994 91.3276 58.9507C91.1957 59.0788 91.0022 59.1048 90.8263 59.1031C90.3116 59.1031 89.7968 59.1031 89.2821 59.1029C89.2816 56.0081 89.2821 52.9132 89.2818 49.8184C89.2846 48.6632 89.2765 47.5079 89.286 46.3526ZM92.359 52.1371C92.103 52.2192 91.9003 52.4274 91.7978 52.6723C91.7241 52.8505 91.7378 53.0472 91.7373 53.2358C91.7376 54.4515 91.7373 55.6673 91.7373 56.8831C91.9966 57.1025 92.296 57.288 92.6264 57.3757C92.8891 57.441 93.1638 57.4533 93.4327 57.4239C93.7262 57.3903 94.0188 57.2757 94.2305 57.0644C94.4591 56.8503 94.5904 56.5567 94.6893 56.265C94.8786 55.6589 94.9066 55.0164 94.894 54.3863C94.8646 53.8217 94.7979 53.2285 94.4862 52.7418C94.2513 52.3666 93.843 52.1136 93.405 52.0598C93.0566 52.02 92.695 52.0292 92.359 52.1371Z" fill="#D8DFE2"/>
<path d="M137.657 46.3497C138.21 46.2813 138.789 46.5952 139.012 47.1099C139.192 47.5358 139.157 48.0631 138.88 48.4403C138.72 48.6409 138.508 48.8037 138.265 48.8872C137.796 49.0452 137.234 48.9586 136.872 48.6092C136.677 48.4263 136.544 48.1777 136.505 47.9129C136.451 47.5694 136.501 47.1965 136.703 46.907C136.914 46.5876 137.277 46.3814 137.657 46.3497Z" fill="#D8DFE2"/>
<path d="M148.861 46.3542C149.326 46.2887 149.822 46.4764 150.106 46.855C150.286 47.0808 150.367 47.373 150.365 47.6591C150.368 47.9587 150.279 48.2658 150.08 48.4941C149.762 48.8828 149.218 49.0391 148.734 48.9307C148.241 48.834 147.82 48.4165 147.751 47.9138C147.699 47.5863 147.742 47.2332 147.921 46.9488C148.124 46.6224 148.478 46.396 148.861 46.3542Z" fill="#D8DFE2"/>
<path d="M76.0192 50.3895C76.7347 50.2536 77.4783 50.2821 78.1865 50.4461C78.7018 50.5668 79.2081 50.7725 79.6142 51.1191C79.7601 51.2446 79.8785 51.4119 79.911 51.6052C79.9637 51.886 79.8701 52.1668 79.7587 52.4212C79.65 52.6577 79.5156 52.8832 79.3498 53.0841C79.165 52.8922 78.9463 52.7375 78.7208 52.598C78.4932 52.4585 78.2523 52.3354 77.9936 52.2657C77.5875 52.15 77.1559 52.1415 76.7398 52.2035C76.3001 52.273 75.8624 52.4783 75.5944 52.8451C75.2491 53.3122 75.0951 53.8959 75.0612 54.4695C75.0332 54.9847 75.0682 55.5082 75.1998 56.0086C75.3283 56.4835 75.5972 56.9377 76.0131 57.214C76.2693 57.3922 76.5734 57.4914 76.882 57.527C77.1895 57.5603 77.5032 57.5573 77.8068 57.4939C78.3509 57.3751 78.8693 57.1022 79.2412 56.6819C79.4154 56.8803 79.5475 57.1109 79.6638 57.3468C79.7634 57.5603 79.8542 57.7879 79.8525 58.0274C79.8463 58.2182 79.7934 58.4211 79.6556 58.5604C79.4383 58.7901 79.1471 58.9314 78.8609 59.056C78.387 59.2637 77.8734 59.3701 77.3578 59.3951C76.6905 59.441 76.0164 59.3713 75.3718 59.1959C74.8663 59.0636 74.4014 58.8041 73.9962 58.4774C73.5652 58.1216 73.24 57.652 72.9967 57.1521C72.741 56.618 72.6267 56.0276 72.5825 55.4403C72.5318 54.7129 72.5517 53.971 72.741 53.2632C72.8835 52.7238 73.1605 52.2267 73.5089 51.7938C73.82 51.4004 74.2219 51.0872 74.6602 50.8473C75.0788 50.6094 75.5471 50.4732 76.0192 50.3895Z" fill="#D8DFE2"/>
<path d="M82.6907 50.67C83.2998 50.4077 83.9677 50.2872 84.63 50.306C85.2399 50.3183 85.863 50.4223 86.4058 50.7137C86.9023 50.9636 87.3282 51.3517 87.6184 51.8266C88.0827 52.5694 88.2143 53.4683 88.2037 54.3305C88.1944 54.6373 88.1905 54.9455 88.1482 55.2501C86.3724 55.2504 84.5967 55.2501 82.8209 55.2504C82.8612 55.8772 83.0729 56.5124 83.5048 56.9795C83.8089 57.3124 84.2533 57.4788 84.6924 57.5351C85.0585 57.5772 85.4334 57.5811 85.7958 57.5057C86.2293 57.4037 86.6491 57.2216 86.9981 56.9411C87.1384 56.8293 87.2705 56.7077 87.4058 56.59C87.5741 56.8058 87.7192 57.0386 87.8528 57.2776C87.9555 57.469 88.053 57.6694 88.0869 57.8862C88.1255 58.1356 88.0051 58.3844 87.8242 58.5511C87.4937 58.8655 87.063 59.0465 86.6337 59.181C85.9442 59.3937 85.2133 59.4324 84.497 59.3934C83.8268 59.3413 83.1497 59.2191 82.542 58.9207C82.0891 58.6898 81.6749 58.3749 81.3548 57.9781C81.0656 57.6192 80.8429 57.2093 80.6805 56.7789C80.4615 56.175 80.3803 55.5297 80.3663 54.89C80.3475 54.1991 80.4133 53.4938 80.664 52.8446C80.8578 52.364 81.1204 51.9062 81.4778 51.5282C81.8192 51.1648 82.2345 50.8711 82.6907 50.67ZM83.8627 52.0396C83.5734 52.1385 83.3238 52.338 83.1483 52.5865C82.8859 52.9682 82.8007 53.4423 82.8013 53.8981C83.861 53.8984 84.9207 53.8979 85.9804 53.8984C85.9706 53.5011 85.9277 53.0962 85.7659 52.7294C85.6925 52.5759 85.6163 52.4198 85.4928 52.2996C85.3038 52.1107 85.0431 52.0116 84.7832 51.9715C84.4765 51.9289 84.157 51.9365 83.8627 52.0396Z" fill="#D8DFE2"/>
<path d="M114.631 50.428C115.194 50.2741 115.795 50.2652 116.368 50.3756C116.915 50.4818 117.436 50.7334 117.837 51.1237C118.272 51.5308 118.545 52.0781 118.734 52.6359C118.918 53.2089 118.983 53.8131 118.998 54.4127C119.007 55.1101 118.974 55.8142 118.813 56.4954C118.694 56.9762 118.511 57.4444 118.252 57.8675C117.949 58.366 117.506 58.7779 116.984 59.0379C116.443 59.287 115.841 59.3916 115.248 59.3691C114.724 59.3504 114.209 59.1906 113.755 58.9301C113.566 58.8247 113.411 58.672 113.272 58.5084C113.279 60.0198 113.274 61.5309 113.276 63.0423C112.457 63.0434 111.638 63.0426 110.818 63.0428C110.817 58.8799 110.819 54.7173 110.816 50.5546C111.261 50.4705 111.721 50.454 112.168 50.5288C112.461 50.5866 112.767 50.6877 112.969 50.9203C113.078 51.0374 113.135 51.1901 113.181 51.3411C113.32 51.2176 113.444 51.0769 113.598 50.9713C113.915 50.7443 114.251 50.5294 114.631 50.428ZM113.9 52.2479C113.643 52.3308 113.443 52.5449 113.346 52.7937C113.284 52.952 113.293 53.1246 113.293 53.2913C113.294 54.4945 113.291 55.6977 113.294 56.9006C113.566 57.1247 113.88 57.313 114.226 57.3929C114.668 57.4814 115.157 57.4486 115.545 57.2015C115.833 57.0169 116.029 56.7196 116.157 56.4071C116.404 55.7949 116.445 55.1227 116.431 54.4693C116.403 53.9181 116.334 53.3437 116.045 52.8612C115.818 52.4717 115.396 52.217 114.952 52.1655C114.602 52.1271 114.237 52.1335 113.9 52.2479Z" fill="#D8DFE2"/>
<path d="M122.369 50.4206C123.13 50.2833 123.911 50.2673 124.678 50.3623C125.293 50.443 125.924 50.6282 126.394 51.0519C126.781 51.3898 127.017 51.8706 127.124 52.3674C127.293 53.083 127.243 53.823 127.252 54.5521C127.253 55.4493 127.246 56.3468 127.256 57.244C127.278 57.8742 127.341 58.5343 127.668 59.0883C127.374 59.1925 127.072 59.283 126.758 59.3057C126.375 59.332 125.966 59.3256 125.618 59.1429C125.316 58.986 125.128 58.6719 125.068 58.3441C124.451 58.9611 123.587 59.3023 122.72 59.3267C122.041 59.3702 121.328 59.2572 120.748 58.8843C120.376 58.6534 120.091 58.2998 119.904 57.9067C119.743 57.5598 119.68 57.1754 119.67 56.7951C119.651 56.2658 119.749 55.7124 120.055 55.2703C120.336 54.8811 120.707 54.556 121.133 54.3333C121.661 54.0508 122.245 53.8819 122.837 53.7984C123.521 53.6936 124.212 53.6347 124.904 53.6426C124.903 53.347 124.922 53.0427 124.824 52.7586C124.754 52.5369 124.598 52.3427 124.39 52.2368C124.102 52.0878 123.772 52.0497 123.452 52.0396C123.105 52.0348 122.755 52.0581 122.417 52.1421C122.126 52.2066 121.853 52.3301 121.584 52.4559C121.304 52.5753 121.04 52.7291 120.768 52.8656C120.556 52.6109 120.4 52.3144 120.289 52.0034C120.226 51.8247 120.166 51.6195 120.255 51.4385C120.374 51.2006 120.607 51.0502 120.831 50.9233C121.309 50.6663 121.838 50.522 122.369 50.4206ZM124.043 54.9677C123.637 55.0189 123.221 55.0668 122.847 55.2456C122.478 55.4171 122.133 55.7152 122.026 56.1224C121.932 56.5096 121.976 56.9478 122.211 57.2785C122.346 57.4981 122.592 57.6251 122.839 57.6727C123.354 57.7685 123.902 57.6794 124.36 57.4259C124.55 57.3281 124.72 57.1877 124.845 57.0137C124.909 56.9257 124.943 56.8175 124.94 56.7088C124.939 56.1095 124.94 55.5101 124.94 54.9108C124.639 54.9004 124.341 54.9382 124.043 54.9677Z" fill="#D8DFE2"/>
<path d="M132.217 50.3455C132.861 50.2612 133.521 50.3051 134.152 50.4562C134.676 50.5856 135.194 50.8019 135.594 51.1729C135.822 51.3766 135.893 51.7101 135.823 52.0012C135.73 52.3991 135.526 52.7656 135.272 53.0833C135.132 52.9441 134.979 52.8171 134.813 52.7087C134.536 52.5224 134.24 52.354 133.915 52.2657C133.509 52.15 133.077 52.1416 132.661 52.2038C132.267 52.2665 131.877 52.4358 131.606 52.735C131.256 53.1402 131.079 53.6667 131.008 54.1901C130.956 54.6267 130.964 55.0699 131.022 55.5057C131.08 55.9607 131.215 56.4183 131.493 56.7892C131.784 57.1941 132.254 57.4575 132.747 57.5189C133.623 57.6545 134.568 57.3488 135.162 56.6822C135.342 56.8848 135.476 57.1235 135.595 57.3659C135.689 57.5741 135.777 57.7946 135.776 58.0272C135.772 58.2393 135.699 58.4601 135.536 58.6033C135.285 58.84 134.964 58.9832 134.648 59.1113C134.197 59.2959 133.711 59.3752 133.226 59.3982C132.503 59.4422 131.772 59.3497 131.08 59.1331C130.59 58.9616 130.137 58.6859 129.755 58.3337C129.388 57.9826 129.105 57.5517 128.891 57.0933C128.655 56.5766 128.548 56.0109 128.505 55.4474C128.453 54.711 128.473 53.9592 128.668 53.243C128.813 52.7051 129.093 52.2099 129.443 51.7793C129.752 51.3923 130.15 51.0833 130.583 50.8468C131.083 50.5621 131.651 50.4253 132.217 50.3455Z" fill="#D8DFE2"/>
<path d="M154.845 50.4274C155.506 50.2767 156.194 50.2677 156.862 50.3762C157.435 50.4751 158.009 50.6524 158.483 50.9999C158.644 51.1162 158.803 51.2529 158.88 51.4415C158.988 51.6853 158.95 51.9657 158.863 52.2098C158.751 52.5273 158.581 52.8223 158.371 53.0837C158.133 52.8422 157.847 52.6553 157.554 52.4891C157.035 52.1938 156.416 52.1134 155.829 52.1935C155.406 52.2482 154.98 52.4205 154.694 52.7469C154.348 53.1524 154.174 53.6772 154.106 54.1998C154.05 54.6585 154.064 55.1244 154.131 55.5814C154.193 56.0261 154.338 56.4697 154.619 56.8258C154.91 57.2066 155.359 57.4554 155.833 57.5168C156.712 57.6563 157.664 57.3517 158.261 56.6815C158.463 56.9149 158.614 57.1881 158.739 57.4689C158.846 57.7157 158.917 57.9965 158.838 58.2618C158.8 58.4252 158.693 58.5622 158.565 58.6659C158.305 58.8755 157.996 59.0144 157.687 59.1327C157.141 59.3482 156.549 59.4036 155.967 59.4078C155.589 59.412 155.212 59.3683 154.841 59.2994C154.279 59.1999 153.727 58.9993 153.263 58.6605C152.825 58.3675 152.471 57.9581 152.206 57.5042C151.899 57.0001 151.72 56.4265 151.645 55.8431C151.565 55.2102 151.553 54.5663 151.63 53.9325C151.702 53.3387 151.883 52.7528 152.207 52.2465C152.494 51.7842 152.865 51.3661 153.323 51.068C153.776 50.7469 154.301 50.5348 154.845 50.4274Z" fill="#D8DFE2"/>
<path d="M98.6964 50.5368C98.9216 50.5321 99.1439 50.4878 99.3694 50.485C99.7835 50.4749 100.214 50.527 100.581 50.733C100.758 50.817 100.902 50.9641 100.993 51.1365C101.11 51.3587 101.148 51.6139 101.15 51.8622C101.156 53.1419 101.145 54.4215 101.155 55.7009C101.171 56.0338 101.164 56.3785 101.287 56.6937C101.346 56.8531 101.451 56.9974 101.593 57.0924C101.792 57.2342 102.042 57.2785 102.281 57.2902C102.77 57.314 103.281 57.2238 103.691 56.9445C103.896 56.8032 104.065 56.5774 104.06 56.3188C104.06 54.3916 104.062 52.4641 104.059 50.5366C104.597 50.4825 105.16 50.4256 105.68 50.6167C106.002 50.7327 106.271 50.9829 106.402 51.3001C106.502 51.5299 106.52 51.7843 106.518 52.0317C106.518 54.3888 106.519 56.7458 106.516 59.1028C105.982 59.1031 105.447 59.1034 104.913 59.1028C104.745 59.0986 104.566 59.0902 104.424 58.9927C104.325 58.9244 104.275 58.8098 104.247 58.6974C104.199 58.5172 104.188 58.3298 104.188 58.144C103.961 58.4332 103.668 58.6629 103.352 58.8453C103.018 59.0563 102.631 59.1645 102.244 59.2197C101.783 59.2788 101.314 59.2796 100.853 59.2228C100.442 59.1681 100.026 59.0521 99.6895 58.8008C99.2764 58.4892 98.9882 58.026 98.8653 57.5253C98.7295 56.9562 98.7079 56.3684 98.6992 55.7858C98.6919 54.0363 98.6972 52.2864 98.6964 50.5368Z" fill="#D8DFE2"/>
<path d="M136.646 50.5478C136.985 50.4884 137.334 50.4732 137.678 50.4909C137.975 50.5125 138.283 50.5573 138.539 50.7218C138.786 50.8697 138.965 51.1202 139.039 51.3976C139.1 51.6125 139.102 51.8375 139.102 52.0592C139.099 54.4459 139.107 56.8327 139.099 59.2194C138.714 59.2951 138.318 59.2909 137.929 59.271C137.691 59.2432 137.444 59.2116 137.235 59.0863C136.957 58.9286 136.774 58.6394 136.703 58.3331C136.649 58.1149 136.644 57.889 136.645 57.6657C136.645 55.293 136.643 52.9202 136.646 50.5478Z" fill="#D8DFE2"/>
<path d="M147.891 50.5467C148.236 50.4892 148.588 50.4718 148.937 50.4917C149.205 50.513 149.481 50.5511 149.72 50.6834C150.002 50.8305 150.209 51.1045 150.288 51.4108C150.352 51.6495 150.347 51.8989 150.347 52.1441C150.347 54.5011 150.346 56.8579 150.347 59.2149C150.088 59.2827 149.818 59.274 149.553 59.2841C149.232 59.2808 148.902 59.2665 148.601 59.1471C148.355 59.0451 148.157 58.8467 148.046 58.6066C147.912 58.3317 147.89 58.0202 147.891 57.7192C147.891 55.3283 147.89 52.9373 147.891 50.5467Z" fill="#D8DFE2"/>
</svg>
