<svg width="56" height="56" viewBox="0 0 56 56" fill="none" xmlns="http://www.w3.org/2000/svg">
<rect width="56" height="56" rx="8" fill="#F0F5F7"/>
<path fill-rule="evenodd" clip-rule="evenodd" d="M29.8772 29.8762C33.0774 26.6761 38.3736 26.6761 41.5735 29.8762C43.1181 31.4206 43.9999 33.5171 44 35.7238C44 37.9308 43.1169 40.0276 41.5725 41.5725C40.0281 43.1172 37.9316 44 35.7249 44C33.5181 44 31.422 43.1168 29.8772 41.5725C28.3324 40.028 27.4497 37.9308 27.4497 35.7238C27.4498 33.5169 28.3325 31.421 29.8772 29.8762ZM38.6487 31.0339C38.2074 31.6407 37.4906 31.9165 36.7735 31.8063L35.945 31.6963C35.5589 31.6414 35.1729 31.8626 35.0074 32.2487L34.7312 32.9651C34.4002 33.7375 33.5177 34.2342 32.6349 34.1238C32.3592 34.1238 32.1381 34.1795 31.9175 34.345C31.6972 34.5104 31.5874 34.7309 31.5873 35.0063C31.5873 36.1098 31.0902 37.1591 30.2074 37.8212L29.1598 38.6487C29.4908 39.3106 29.877 39.9732 30.4286 40.5249L31.145 39.9725C31.7518 39.5311 32.5251 39.3657 33.2423 39.5312C33.9593 39.6968 34.5664 40.1931 34.8423 40.9101L35.6698 42.8974H35.7249C36.3867 42.8973 36.9934 42.7867 37.545 42.5661L36.8286 40.6899C36.4976 39.697 36.7179 38.5386 37.4899 37.7661L37.9312 37.3238C38.3726 36.8824 38.538 36.2755 38.3725 35.7238C38.0418 34.3446 38.7596 32.9653 40.0836 32.4688L41.7937 31.8063C41.5178 31.3651 41.1871 30.9237 40.8011 30.5376C40.4701 30.2066 40.0835 29.9309 39.6974 29.655L38.6487 31.0339ZM32.9111 40.5799C32.5249 40.4695 32.1384 40.5241 31.8074 40.8L31.2011 41.2974C32.1389 42.0696 33.2426 42.5656 34.4011 42.7862L33.7937 41.3524C33.6281 40.9662 33.2973 40.6903 32.9111 40.5799ZM40.4698 33.5725C39.6974 33.8484 39.2555 34.6761 39.4762 35.5037C39.6968 36.4416 39.4218 37.4903 38.7598 38.1524L38.3175 38.5937C37.8764 39.0351 37.7117 39.752 37.9323 40.3587L38.6487 42.2899C39.4211 41.9589 40.139 41.4621 40.8011 40.8C42.125 39.4208 42.8974 37.6548 42.8974 35.7238C42.8973 34.6757 42.6761 33.7377 42.2899 32.855L40.4698 33.5725ZM35.7249 28.5513C33.9042 28.5513 32.028 29.2693 30.6487 30.6487C29.3249 32.0278 28.5525 33.7931 28.5524 35.7238C28.5524 36.3307 28.6631 36.938 28.8286 37.545L29.6011 36.9376C30.2075 36.4411 30.5385 35.7795 30.5386 35.0074C30.5386 34.4556 30.7597 33.9037 31.2011 33.5175C31.6424 33.1865 32.2494 33.021 32.8011 33.0762C33.1871 33.1312 33.5732 32.9099 33.7386 32.5238L34.0148 31.8063C34.346 31.0343 35.2286 30.5384 36.1111 30.6487L36.9386 30.7587C37.2696 30.8139 37.5455 30.7033 37.7661 30.4275L38.7037 29.2138C37.7659 28.7725 36.7178 28.5513 35.7249 28.5513Z" fill="#36A5C2"/>
<path d="M17.5175 30.2074C17.8484 30.2074 18.0697 30.4279 18.0698 30.7587V36.8286H22.6487L21.545 35.891C21.3244 35.6704 21.2697 35.3392 21.4899 35.1185C21.7105 34.898 22.0417 34.8422 22.2624 35.0624L24.4698 36.9937C24.5249 36.9938 24.5799 37.0497 24.5799 37.1048C24.6351 37.1048 24.6349 37.1598 24.6349 37.1598C24.69 37.2148 24.6899 37.3246 24.6899 37.3799V37.6011C24.635 37.6012 24.6349 37.6561 24.6349 37.6561L24.5249 37.7661L22.3175 39.6974C22.2071 39.7525 22.0415 39.8074 21.9312 39.8074C21.7658 39.8073 21.6002 39.7526 21.4899 39.6423C21.2694 39.4217 21.3245 39.0905 21.545 38.8698L22.6487 37.9323H17.5175C17.1866 37.9321 16.9661 37.7108 16.9661 37.3799V30.7587C16.9663 30.428 17.1868 30.2076 17.5175 30.2074Z" fill="#36A5C2"/>
<path fill-rule="evenodd" clip-rule="evenodd" d="M20.2762 12C24.3039 12 28.5524 13.2142 28.5524 15.4212V25.1312C28.5524 27.3382 24.3039 28.6074 20.2762 28.6074C16.2484 28.6074 12 27.3932 12 25.1862V15.4212C12 13.2142 16.2484 12 20.2762 12ZM27.4476 20.3862C25.9032 21.4896 23.0344 22.0423 20.2762 22.0423C17.5178 22.0423 14.6485 21.4346 13.1037 20.3862V21.8762C13.1037 22.8693 15.8074 24.1937 20.2762 24.1937C24.7448 24.1936 27.4476 22.8141 27.4476 21.8762V20.3862ZM20.2762 13.1037C15.8074 13.1037 13.1037 14.4832 13.1037 15.4212C13.104 16.3591 15.8077 17.7386 20.2762 17.7386C24.7445 17.7386 27.4473 16.4143 27.4476 15.4212C27.4476 14.428 24.7449 13.1038 20.2762 13.1037Z" fill="#36A5C2"/>
<path d="M33.7386 16.3037C33.9592 16.0836 34.2895 16.1385 34.5101 16.3587C34.7307 16.5794 34.6757 16.9105 34.455 17.1312L33.3524 18.0698H38.4825C38.8135 18.0698 39.0349 18.2902 39.0349 18.6212V25.2423C39.0349 25.5733 38.8135 25.7937 38.4825 25.7937C38.1517 25.7935 37.9313 25.5732 37.9312 25.2423V19.1725H33.4074L34.5111 20.1111C34.7315 20.3318 34.7867 20.663 34.5661 20.8836C34.4559 20.9938 34.2903 21.0486 34.1249 21.0487C33.9595 21.0487 33.8489 21.0487 33.7386 20.9386L31.5312 19.0074C31.4762 19.0073 31.4214 18.9524 31.4212 18.8974C31.366 18.8974 31.3661 18.8413 31.3661 18.8413C31.3111 18.7861 31.3111 18.6763 31.3111 18.6212C31.3111 18.566 31.311 18.4562 31.3661 18.4011C31.4209 18.4008 31.4212 18.345 31.4212 18.345L31.5312 18.2349L33.7386 16.3037Z" fill="#36A5C2"/>
</svg>
