<svg width="56" height="56" viewBox="0 0 56 56" fill="none" xmlns="http://www.w3.org/2000/svg">
<rect width="56" height="56" rx="8" fill="#F0F5F7"/>
<path d="M16 27.25V28.75C16 29.175 16.325 29.5 16.75 29.5C17.175 29.5 17.5 29.175 17.5 28.75V27.25C17.5 26.825 17.175 26.5 16.75 26.5C16.325 26.5 16 26.825 16 27.25Z" fill="#36A5C2"/>
<path d="M23.0259 38.6244C23.2759 38.6244 23.5259 38.4994 23.6759 38.2494C23.8759 37.8994 23.7509 37.4244 23.4009 37.2244L22.1009 36.4744C21.7509 36.2744 21.2759 36.3994 21.0759 36.7494C20.8759 37.0994 21.0009 37.5744 21.3509 37.7744L22.6509 38.5244C22.7759 38.5994 22.9009 38.6244 23.0259 38.6244Z" fill="#36A5C2"/>
<path d="M32.9759 38.6244C33.1009 38.6244 33.2259 38.5994 33.3509 38.5244L34.6509 37.7744C35.0009 37.5744 35.1259 37.0994 34.9259 36.7494C34.7259 36.3994 34.2509 36.2744 33.9009 36.4744L32.6009 37.2244C32.2509 37.4244 32.1259 37.8994 32.3259 38.2494C32.4759 38.4994 32.7259 38.6244 32.9759 38.6244Z" fill="#36A5C2"/>
<path d="M38.5 27.25V28.75C38.5 29.175 38.825 29.5 39.25 29.5C39.675 29.5 40 29.175 40 28.75V27.25C40 26.825 39.675 26.5 39.25 26.5C38.825 26.5 38.5 26.825 38.5 27.25Z" fill="#36A5C2"/>
<path d="M33.9009 19.5244C34.0259 19.5994 34.1509 19.6244 34.2759 19.6244C34.5259 19.6244 34.7759 19.4994 34.9259 19.2494C35.1259 18.8994 35.0009 18.4244 34.6509 18.2244L33.3509 17.4744C33.0009 17.2744 32.5259 17.3994 32.3259 17.7494C32.1259 18.0994 32.2509 18.5744 32.6009 18.7744L33.9009 19.5244Z" fill="#36A5C2"/>
<path d="M21.7259 19.6244C21.8509 19.6244 21.9759 19.5994 22.1009 19.5244L23.4009 18.7744C23.7509 18.5744 23.8759 18.0994 23.6759 17.7494C23.4759 17.3994 23.0009 17.2744 22.6509 17.4744L21.3509 18.2244C21.0009 18.4244 20.8759 18.8994 21.0759 19.2494C21.2009 19.4994 21.4759 19.6244 21.7259 19.6244Z" fill="#36A5C2"/>
<path d="M31.25 15.5C31.25 13.7 29.8 12.25 28 12.25C26.2 12.25 24.75 13.7 24.75 15.5C24.75 17.3 26.2 18.75 28 18.75C29.8 18.75 31.25 17.3 31.25 15.5ZM26.25 15.5C26.25 14.525 27.025 13.75 28 13.75C28.975 13.75 29.75 14.525 29.75 15.5C29.75 16.475 28.975 17.25 28 17.25C27.025 17.25 26.25 16.475 26.25 15.5Z" fill="#36A5C2"/>
<path d="M28 37.25C26.2 37.25 24.75 38.7 24.75 40.5C24.75 42.3 26.2 43.75 28 43.75C29.8 43.75 31.25 42.3 31.25 40.5C31.25 38.7 29.8 37.25 28 37.25ZM28 42.25C27.025 42.25 26.25 41.475 26.25 40.5C26.25 39.525 27.025 38.75 28 38.75C28.975 38.75 29.75 39.525 29.75 40.5C29.75 41.475 28.975 42.25 28 42.25Z" fill="#36A5C2"/>
<path d="M39.25 37.5C41.05 37.5 42.5 36.05 42.5 34.25C42.5 32.45 41.05 31 39.25 31C37.45 31 36 32.45 36 34.25C36 36.05 37.45 37.5 39.25 37.5ZM39.25 32.5C40.225 32.5 41 33.275 41 34.25C41 35.225 40.225 36 39.25 36C38.275 36 37.5 35.225 37.5 34.25C37.5 33.275 38.275 32.5 39.25 32.5Z" fill="#36A5C2"/>
<path d="M42.5 21.75C42.5 19.95 41.05 18.5 39.25 18.5C37.45 18.5 36 19.95 36 21.75C36 23.55 37.45 25 39.25 25C41.05 25 42.5 23.55 42.5 21.75ZM39.25 23.5C38.275 23.5 37.5 22.725 37.5 21.75C37.5 20.775 38.275 20 39.25 20C40.225 20 41 20.775 41 21.75C41 22.725 40.225 23.5 39.25 23.5Z" fill="#36A5C2"/>
<path d="M20 21.75C20 19.95 18.55 18.5 16.75 18.5C14.95 18.5 13.5 19.95 13.5 21.75C13.5 23.55 14.95 25 16.75 25C18.55 25 20 23.55 20 21.75ZM16.75 23.5C15.775 23.5 15 22.725 15 21.75C15 20.775 15.775 20 16.75 20C17.725 20 18.5 20.775 18.5 21.75C18.5 22.725 17.725 23.5 16.75 23.5Z" fill="#36A5C2"/>
<path d="M16.75 37.5C18.55 37.5 20 36.05 20 34.25C20 32.45 18.55 31 16.75 31C14.95 31 13.5 32.45 13.5 34.25C13.5 36.05 14.95 37.5 16.75 37.5ZM16.75 32.5C17.725 32.5 18.5 33.275 18.5 34.25C18.5 35.225 17.725 36 16.75 36C15.775 36 15 35.225 15 34.25C15 33.275 15.775 32.5 16.75 32.5Z" fill="#36A5C2"/>
<path d="M30.7501 29.1253C30.3251 29.4253 29.5501 28.8003 29.2251 29.2753C28.9001 29.7253 30.5751 31.0753 31.1251 30.8003C32.0751 30.3503 32.6751 29.4253 32.6751 29.1003C32.7001 28.7753 32.2501 28.1003 30.7501 29.1253Z" fill="#36A5C2"/>
<path d="M35 28.25C35 24.4 31.85 21.25 28 21.25C24.15 21.25 21 24.4 21 28.25C21 32.1 24.15 35.25 28 35.25C31.85 35.25 35 32.1 35 28.25ZM28 33.75C27.075 33.75 26.2 33.525 25.425 33.125H25.45C25.65 33 25.875 32.875 26.1 32.725C26.275 32.6 26.4 32.45 26.5 32.3C26.625 32.1 26.75 31.875 26.825 31.625C27.275 29.925 25.8 29.85 25.75 29.475C25.7 29.05 26.25 28.75 26.575 28.4C26.9 28.05 27 27.55 26.825 27.25C26.275 26.275 24.975 26.775 24.875 27.825C24.8 28.45 24.425 29.1 24.1 29.4C23.775 29.725 23.15 29.55 22.975 29.075C22.775 28.55 23.45 28.35 23.35 27.7C23.325 27.525 23.125 27.425 22.9 27.4L22.525 27.425C22.975 24.775 25.25 22.75 28 22.75C28.75 22.75 29.45 22.9 30.1 23.175V23.575C30.1 23.875 29.925 24.175 29.625 24.3C29 24.575 28.375 24.425 28.1 25.15C27.9 25.675 28.475 27.15 29.15 27.15C30.025 27.15 30.45 25.375 30.7 25.375C30.875 25.375 31.125 25.9 31.425 26.3C31.625 26.575 31.95 26.725 32.3 26.725H32.875L33.25 26.825C33.425 27.25 33.5 27.75 33.5 28.25C33.5 31.275 31.025 33.75 28 33.75Z" fill="#36A5C2"/>
</svg>
